<svg width="20" height="20" viewBox="0 0 20 20" fill="none" xmlns="http://www.w3.org/2000/svg">
<path fill-rule="evenodd" clip-rule="evenodd" d="M7.22325 2.00519C8.35606 1.96261 9.48359 2.18258 10.5211 2.64856C11.5586 3.11454 12.479 3.81441 13.2132 4.69556C13.806 5.40703 14.265 6.22174 14.5691 7.09854H15.0037C16.1145 7.09929 17.1934 7.47739 18.0701 8.17318C18.9469 8.86898 19.5715 9.84283 19.8455 10.941C20.1195 12.0392 20.0272 13.1993 19.5832 14.238C19.1392 15.2768 18.3688 16.1351 17.3935 16.6775C16.9895 16.9022 16.4833 16.7503 16.2631 16.338C16.0428 15.9258 16.1918 15.4095 16.5958 15.1847C17.246 14.8231 17.7596 14.2509 18.0556 13.5584C18.3516 12.8659 18.4131 12.0925 18.2305 11.3604C18.0478 10.6283 17.6314 9.97904 17.0469 9.51518C16.4624 9.05132 15.7431 8.79924 15.0026 8.79875H13.9533C13.5734 8.79875 13.2416 8.53664 13.1465 8.16143C12.9258 7.29057 12.5145 6.48208 11.9435 5.79675C11.3724 5.11142 10.6565 4.56708 9.84958 4.20464C9.04265 3.84221 8.16568 3.67113 7.28461 3.70424C6.40353 3.73736 5.54128 3.97383 4.76268 4.39586C3.98407 4.81789 3.30938 5.4145 2.78931 6.14084C2.26925 6.86719 1.91735 7.70437 1.76008 8.58943C1.6028 9.4745 1.64424 10.3844 1.88128 11.2508C2.11832 12.1172 2.54479 12.9175 3.12862 13.5915C3.43336 13.9433 3.40085 14.4805 3.05601 14.7914C2.71117 15.1023 2.18458 15.0691 1.87984 14.7173C1.12919 13.8507 0.580875 12.8218 0.276112 11.7079C-0.0286508 10.594 -0.0819296 9.42408 0.120282 8.28614C0.322493 7.1482 0.774932 6.07183 1.44358 5.13796C2.11224 4.20409 2.9797 3.43701 3.98076 2.8944C4.98183 2.35179 6.09044 2.04777 7.22325 2.00519ZM9.41439 9.89784C9.7398 9.56585 10.2674 9.56585 10.5928 9.89784L13.9259 13.2983C14.2513 13.6302 14.2513 14.1685 13.9259 14.5005C13.6004 14.8325 13.0729 14.8325 12.7474 14.5005L10.8369 12.5513V18.1499C10.8369 18.6194 10.4638 19 10.0036 19C9.5434 19 9.17033 18.6194 9.17033 18.1499V12.5513L7.25975 14.5005C6.93434 14.8325 6.40675 14.8325 6.08134 14.5005C5.75593 14.1685 5.75593 13.6302 6.08134 13.2983L9.41439 9.89784Z" fill="#B3B3B3"/>
</svg>
